<svg xmlns="http://www.w3.org/2000/svg" width="120" height="20" viewBox="0 0 119 20"><path d="M17.305 19.672h-4.532L4.593 8.5v11.172H.024V.375h4.223L17.305 18.07Zm0 0" style="stroke:none;fill-rule:nonzero;fill:#1d242d;fill-opacity:1"/><path d="M12.734.375h4.57v7.7h-4.57Zm0 0" style="stroke:none;fill-rule:nonzero;fill:#dfb44f;fill-opacity:1"/><path d="M40.16 9.996c0 5.516-4.453 9.996-9.972 9.996-5.516 0-9.993-4.48-9.993-9.996 0-5.52 4.477-9.996 9.992-9.996 5.52 0 9.973 4.457 9.973 9.996Zm-4.59-.02a5.386 5.386 0 0 0-5.383-5.386 5.389 5.389 0 0 0-5.382 5.387 5.383 5.383 0 0 0 10.766 0ZM59.191 13.805c0 3.53-2.507 6.195-7.714 6.195-3.704 0-6.29-1.273-8.45-3.453l2.47-3.473.386.403c.887.925 2.816 2.472 5.804 2.472 2.008 0 2.895-.851 2.895-1.68 0-1.023-1.7-1.43-3.664-1.89-3.07-.734-6.813-1.719-6.984-6.117v-.524c.097-3.144 2.855-5.71 7.312-5.71 3.066 0 5.727.925 7.867 2.992l-2.582 3.394-.367-.348c-1.371-1.253-3.3-1.984-5.305-1.984-1.43 0-2.277.54-2.277 1.465 0 .848 1.602 1.234 3.453 1.68 3.145.75 6.985 1.773 7.156 6.21ZM77.465.375v4.07h-5.383v15.227h-4.59V4.445H62.07V.375ZM96.004 19.664h-5.246l-3.531-6.39h-2.274v6.37H80.38V.349h9.027c4.012 0 6.485 2.644 6.485 6.23 0 3.418-2.141 5.25-4.227 5.73ZM84.954 8.723h3.835c1.469 0 2.434-.852 2.434-2.145 0-1.293-.946-2.14-2.434-2.14h-3.836ZM111.531.375h-5.152l-7.465 19.297h5.191l4.86-13.836 2.43 6.95 2.414 6.886h5.168Zm0 0" style="stroke:none;fill-rule:nonzero;fill:#1d242d;fill-opacity:1"/><path d="m108.96 19.672-3.065-4.746h6.101Zm0 0" style="stroke:none;fill-rule:nonzero;fill:#dfb44f;fill-opacity:1"/></svg>